<svg xmlns="http://www.w3.org/2000/svg" xmlns:xlink="http://www.w3.org/1999/xlink" viewBox="0 0 267.80658 250.22909">
  <defs>
    <style>
      .cls-1 {
        fill: url(#Безымянный_градиент_3);
      }
    </style>
    <linearGradient id="Безымянный_градиент_3" data-name="Безымянный градиент 3" y1="125.11454" x2="267.80658" y2="125.11454" gradientUnits="userSpaceOnUse">
      <stop offset="0" stop-color="#638bf5"/>
      <stop offset="1" stop-color="#98c5e5"/>
    </linearGradient>
  </defs>
  <title>брекеты</title>
  <g id="Слой_2" data-name="Слой 2">
    <g id="Слой_1-2" data-name="Слой 1">
      <path class="cls-1" d="M262.51215,88.02816H237.50787c11.22785-30.24481,15.98395-65.32111-21.5332-83.46948-21.246-10.273-45.895-1.09119-67.63275,7.01385-10.973,4.092-21.37531,7.97577-29.62744,8.64344-1.27429-.99787-2.49109-1.98139-3.66486-2.929-1.9491-1.565-3.77612-3.03668-5.53137-4.32892C94.28815,1.77328,76.38745-1.45725,59.097,3.84078,42.7757,8.85171,32.13287,16.61214,26.56207,27.56c-8.61474,16.93512-3.32385,37.94782,4.1745,60.46814H5.29443a5.2909,5.2909,0,1,0,0,10.58179H34.344a.3354.3354,0,0,0,.02515.07177l.79327,2.30445c2.22907,6.4826,6.20978,13.42462,10.06128,20.1369,4.81348,8.39221,9.78846,17.07153,9.88178,22.53467l.07538,5.75036c.41638,34.10712,1.18811,97.58326,43.17053,100.80658a3.81615,3.81615,0,0,0,.40564.01441,5.30568,5.30568,0,0,0,3.24127-1.10559c9.61621-7.45172,7.75684-22.45569,5.78626-38.33551-3.15155-25.44934-3.83716-43.9997,16.18847-51.00635,17.671-6.18823,29.55207-2.10339,37.37714,12.86468,6.181,11.80933,4.20325,26.6482,2.4552,39.73542-.359,2.68487-.70715,5.298-.97992,7.81067-1.54706,14.22143,2.33673,25.25549,10.13306,28.78753,3.71508,1.69422,11.3858,2.96491,20.94452-7.43023,21.94244-23.86274,21.69116-73.41175,21.55474-100.03846-.02148-4.3504,4.69867-14.39373,9.6988-25.02575,2.55206-5.43445,5.38775-11.46479,8.11578-17.87555h29.23981a5.2909,5.2909,0,1,0,0-10.58179Zm-46.93592,23.95612c-6.23492,13.25952-10.73608,22.83624-10.70379,29.58441.12921,25.16937.36615,72.0119-18.75855,92.81646-3.52484,3.83356-6.95282,5.77186-8.77984,4.96064-2.35108-1.06964-5.14368-7.3584-3.98432-18.00476.26563-2.43366.603-4.96064.94763-7.55945,1.95624-14.65216,4.171-31.25708-3.56433-46.04566-7.38354-14.10662-18.42114-21.28558-32.42724-21.28558a54.33934,54.33934,0,0,0-17.82892,3.33826c-29.63465,10.36633-25.91236,40.38147-23.19873,62.29876,1.36761,11.01966,2.77466,22.38392-.49536,27.28C66.8,234.31338,66.13232,179.22939,65.76624,149.286l-.079-5.80053c-.13642-8.19123-5.54932-17.63147-11.28174-27.63178-3.37409-5.87952-6.85584-11.95288-8.848-17.24377H97.39661v11.39294A19.88643,19.88643,0,0,0,117.26074,129.867h33.2851A19.88643,19.88643,0,0,0,170.41,110.00289V98.61h51.26117C219.74005,103.01778,217.68683,107.48312,215.57623,111.98428ZM128.6106,98.61V116.507a5.309,5.309,0,0,0,.78613,2.77826h-12.136a9.28876,9.28876,0,0,1-9.27521-9.28241V98.61ZM107.98553,88.02816V76.63522A9.28723,9.28723,0,0,1,117.26074,67.36h12.13239a5.28107,5.28107,0,0,0-.78253,2.77112v17.897ZM138.41705,67.36h12.12879a9.28722,9.28722,0,0,1,9.2752,9.27521V88.02816H139.19952v-17.897A5.281,5.281,0,0,0,138.41705,67.36Zm.78247,49.147V98.61H159.821v11.39294a9.28875,9.28875,0,0,1-9.2752,9.28241H138.41345A5.309,5.309,0,0,0,139.19952,116.507Zm86.88666-28.47888H170.41V76.63522a19.88491,19.88491,0,0,0-19.86413-19.85694h-33.2851A19.88491,19.88491,0,0,0,97.39661,76.63522V88.02816H41.90344c-7.32971-21.60858-13.04052-41.63782-5.90826-55.66547,4.20325-8.26294,12.7749-14.27887,26.21026-18.39959,17.96528-5.50623,32.22986,1.04815,41.0456,7.52356,1.63318,1.20605,3.33459,2.57721,5.15088,4.04168,1.63678,1.32093,3.392,2.73523,5.29089,4.18537a2.54421,2.54421,0,0,0,.25842.19378c7.88965,5.99445,18.2417,12.4914,32.92621,15.18348a5.34368,5.34368,0,0,0,6.15949-4.24994,5.28694,5.28694,0,0,0-4.24994-6.15949A59.7818,59.7818,0,0,1,131.256,28.57223c6.58307-1.78034,13.57178-4.38629,20.78662-7.07843,19.74927-7.3656,42.14753-15.72907,59.32312-7.40149C241.68243,28.75887,238.51294,56.41213,226.08618,88.02816Z"/>
    </g>
  </g>
</svg>
