<svg xmlns="http://www.w3.org/2000/svg" xmlns:xlink="http://www.w3.org/1999/xlink" viewBox="0 0 292.55996 258.57836">
  <defs>
    <style>
      .cls-1 {
        fill: url(#Безымянный_градиент_3);
      }

      .cls-2 {
        fill: url(#Безымянный_градиент_3-2);
      }

      .cls-3 {
        fill: url(#Безымянный_градиент_3-3);
      }

      .cls-4 {
        fill: url(#Безымянный_градиент_3-4);
      }

      .cls-5 {
        fill: url(#Безымянный_градиент_3-5);
      }

      .cls-6 {
        fill: url(#Безымянный_градиент_3-6);
      }

      .cls-7 {
        fill: url(#Безымянный_градиент_3-7);
      }

      .cls-8 {
        fill: url(#Безымянный_градиент_3-8);
      }

      .cls-9 {
        fill: url(#Безымянный_градиент_3-9);
      }

      .cls-10 {
        fill: url(#Безымянный_градиент_3-10);
      }
    </style>
    <linearGradient id="Безымянный_градиент_3" data-name="Безымянный градиент 3" x1="38.91054" y1="129.28918" x2="255.43858" y2="129.28918" gradientUnits="userSpaceOnUse">
      <stop offset="0" stop-color="#638bf5"/>
      <stop offset="1" stop-color="#98c5e5"/>
    </linearGradient>
    <linearGradient id="Безымянный_градиент_3-2" x1="111.45551" y1="120.72655" x2="182.97205" y2="120.72655" xlink:href="#Безымянный_градиент_3"/>
    <linearGradient id="Безымянный_градиент_3-3" x1="175.77159" y1="73.97555" x2="186.36052" y2="73.97555" xlink:href="#Безымянный_градиент_3"/>
    <linearGradient id="Безымянный_градиент_3-4" x1="108.07063" y1="73.97555" x2="118.65956" y2="73.97555" xlink:href="#Безымянный_градиент_3"/>
    <linearGradient id="Безымянный_градиент_3-5" x1="22.5678" y1="134.56261" x2="52.59353" y2="134.56261" xlink:href="#Безымянный_градиент_3"/>
    <linearGradient id="Безымянный_градиент_3-6" x1="242.83267" y1="132.59697" x2="272.85328" y2="132.59697" xlink:href="#Безымянный_градиент_3"/>
    <linearGradient id="Безымянный_градиент_3-7" x1="257.75258" y1="90.5792" x2="291.06058" y2="90.5792" xlink:href="#Безымянный_градиент_3"/>
    <linearGradient id="Безымянный_градиент_3-8" x1="2.6695" y1="91.76854" x2="35.69619" y2="91.76854" xlink:href="#Безымянный_градиент_3"/>
    <linearGradient id="Безымянный_градиент_3-9" x1="0" y1="41.29577" x2="31.79337" y2="41.29577" xlink:href="#Безымянный_градиент_3"/>
    <linearGradient id="Безымянный_градиент_3-10" x1="259.37962" y1="39.37237" x2="292.55996" y2="39.37237" xlink:href="#Безымянный_градиент_3"/>
  </defs>
  <title>цирконий</title>
  <g id="Слой_2" data-name="Слой 2">
    <g id="Слой_1-2" data-name="Слой 1">
      <path class="cls-1" d="M226.74561,4.59838c-20.6753-10.345-44.59192-1.1272-65.68006,7.00293-10.53869,4.06323-20.53534,7.91846-28.45013,8.61108-1.20246-.97265-2.35108-1.93115-3.46387-2.85717-1.88806-1.57569-3.66125-3.051-5.35907-4.3396C108.9967,1.77685,91.58777-1.46778,74.74957,3.85522c-14.59832,4.634-24.86419,12.60278-30.514,23.69067-11.13092,21.84546-2.90747,51.12842,7.27942,81.7356,2.15009,6.46826,5.998,13.40673,9.72388,20.11889,4.65912,8.40308,9.4834,17.09668,9.57312,22.603l.07538,5.76831c.402,34.08911,1.15222,97.5509,41.907,100.78858.14.01074.28.01806.42.01806a5.29627,5.29627,0,0,0,3.30944-1.16308c9.29316-7.44812,7.49842-22.41626,5.59961-38.26368-3.05462-25.48169-3.72589-44.05713,15.589-51.04589,16.94587-6.1272,28.33887-2.053,35.866,12.82153,5.998,11.85254,4.08124,26.71655,2.387,39.8324-.34454,2.67773-.68194,5.28723-.944,7.79992-1.51471,14.3794,2.35474,25.43848,10.10077,28.85938,3.63257,1.60083,11.12018,2.76025,20.32-7.58814,21.21374-23.85205,20.96966-73.36889,20.84045-99.97046-.02514-4.34668,4.415-14.80639,9.11005-25.87988C250.45044,88.477,275.6557,29.05688,226.74561,4.59838Zm-1.09839,115.24683c-5.79694,13.66528-9.9859,23.53979-9.95356,30.06543.12561,25.18383.35535,72.06225-18.16272,92.88476-3.76178,4.2284-6.79486,5.53858-8.13372,4.93909-2.2829-1.00867-4.98578-7.27942-3.8515-18.0658.25842-2.43359.58508-4.96069.91888-7.55578,1.88806-14.62708,4.0274-31.21057-3.43872-45.96668-7.16455-14.157-17.89349-21.36108-31.51911-21.36108a51.447,51.447,0,0,0-17.39453,3.36328c-28.71936,10.3916-25.12628,40.37085-22.49878,62.26306,1.31733,10.99451,2.67414,22.32288-.43078,27.27991-28.705-5.22266-29.35822-60.15943-29.71-90.04541l-.07892-5.81494c-.13281-8.15161-5.36267-17.58472-10.90125-27.56714-3.48535-6.28858-7.09277-12.78931-8.9342-18.32422-9.45105-28.39258-17.1648-55.3855-7.88965-73.58765,4.37555-8.5896,12.31909-14.60913,24.28278-18.40332,17.25817-5.45581,30.96991,1.06617,39.4375,7.49488,1.58294,1.20263,3.22692,2.57739,4.98571,4.04174,1.6045,1.33545,3.32386,2.77124,5.18683,4.23926.03589.02881.07538.061.11487.08985,7.65991,6.01953,17.72119,12.57031,32.02881,15.27661a5.29323,5.29323,0,1,0,1.967-10.4021,56.45526,56.45526,0,0,1-16.94592-6.1167c6.38568-1.7876,13.15539-4.397,20.1477-7.09278,19.979-7.70288,40.62561-15.65356,57.14075-7.4121C262.02649,34.07494,240.13434,85.69164,225.64722,119.84521Z"/>
      <path class="cls-2" d="M177.67761,101.99853H116.74994a5.29723,5.29723,0,0,0-5.29443,5.29443c0,17.73193,16.04132,32.16162,35.7583,32.16162s35.75824-14.42969,35.75824-32.16162A5.29724,5.29724,0,0,0,177.67761,101.99853Zm-30.4638,26.86719c-11.74836,0-21.64454-6.93482-24.40485-16.27833h48.80963C168.85828,121.9309,158.9621,128.86572,147.21381,128.86572Z"/>
      <path class="cls-3" d="M181.06605,83.86812a5.29732,5.29732,0,0,1-5.29446-5.29447V69.37744a5.29447,5.29447,0,1,1,10.58893,0v9.19621A5.29732,5.29732,0,0,1,181.06605,83.86812Z"/>
      <path class="cls-4" d="M113.3651,83.86812a5.29732,5.29732,0,0,1-5.29447-5.29447V69.37744a5.29447,5.29447,0,1,1,10.58893,0v9.19621A5.29731,5.29731,0,0,1,113.3651,83.86812Z"/>
      <path class="cls-5" d="M27.864,147.02122a5.29129,5.29129,0,0,1-3.14437-9.55158l19.44056-14.33633a5.29321,5.29321,0,0,1,6.28157,8.5214L31.00117,145.991A5.268,5.268,0,0,1,27.864,147.02122Z"/>
      <path class="cls-6" d="M267.55787,145.05778a5.248,5.248,0,0,1-3.13719-1.03377l-19.437-14.33633a5.29032,5.29032,0,1,1,6.28157-8.51422l19.437,14.33633a5.29078,5.29078,0,0,1-3.14438,9.548Z"/>
      <path class="cls-7" d="M285.77083,98.689a5.41388,5.41388,0,0,1-1.27785-.15793l-22.72133-5.63188a5.29223,5.29223,0,1,1,2.54852-10.27306L287.0415,88.258a5.29352,5.29352,0,0,1-1.27067,10.431Z"/>
      <path class="cls-8" d="M30.40532,97.05941H7.96037a5.29088,5.29088,0,0,1,0-10.58175h22.445a5.29088,5.29088,0,0,1,0,10.58175Z"/>
      <path class="cls-9" d="M26.49639,51.28293a5.27384,5.27384,0,0,1-2.13933-.45586L3.15049,41.44061A5.2919,5.2919,0,0,1,7.43631,31.7634l21.20658,9.38646a5.2936,5.2936,0,0,1-2.1465,10.13307Z"/>
      <path class="cls-10" d="M264.66835,47.27708a5.29274,5.29274,0,0,1-1.18811-10.44894l22.5957-5.21908a5.29044,5.29044,0,1,1,2.3834,10.309l-22.5957,5.21908A5.272,5.272,0,0,1,264.66835,47.27708Z"/>
    </g>
  </g>
</svg>
