<svg xmlns="http://www.w3.org/2000/svg" xmlns:xlink="http://www.w3.org/1999/xlink" viewBox="0 0 260.58638 274.83122">
  <defs>
    <style>
      .cls-1 {
        fill: url(#Безымянный_градиент_3);
      }

      .cls-2 {
        fill: url(#Безымянный_градиент_3-2);
      }
    </style>
    <linearGradient id="Безымянный_градиент_3" data-name="Безымянный градиент 3" y1="154.81378" x2="260.58638" y2="154.81378" gradientUnits="userSpaceOnUse">
      <stop offset="0" stop-color="#638bf5"/>
      <stop offset="1" stop-color="#98c5e5"/>
    </linearGradient>
    <linearGradient id="Безымянный_градиент_3-2" x1="76.36546" y1="48.7701" x2="199.96787" y2="48.7701" xlink:href="#Безымянный_градиент_3"/>
  </defs>
  <title>гигиена</title>
  <g id="Слой_2" data-name="Слой 2">
    <g id="Слой_1-2" data-name="Слой 1">
      <g>
        <path class="cls-1" d="M254.452,59.87236a16.26323,16.26323,0,0,0-14.54089-4.93915,18.86984,18.86984,0,0,0-3.95563,1.1128L216.25289,36.347a5.292,5.292,0,1,0-7.48761,7.48047l18.30627,18.30627-8.884,8.88752L199.88491,52.715a5.292,5.292,0,1,0-7.48761,7.48047l18.30627,18.30627L201.8232,87.382,183.52053,69.08293a5.292,5.292,0,1,0-7.48761,7.48047l18.30267,18.30627L185.45882,103.75,167.15255,85.44371a5.292,5.292,0,0,0-7.48761,7.48047l18.30627,18.30627-8.88037,8.88037-18.30267-18.29913a5.292,5.292,0,1,0-7.48761,7.48047l18.30627,18.30627-13.67944,13.683c-55.06244,1.285-131.94171,72.75134-145.57093,107.03076C-2.177,259.71239.66585,265.714,3.90358,268.75786a20.94108,20.94108,0,0,0,29.55927-.06464l38.48627-38.47906c3.72943-3.7331,7.49121-7.76044,11.32836-11.874,20.15125-21.59423,40.97016-43.93511,69.94794-37.56018a5.0468,5.0468,0,0,0,1.13788.122,20.80011,20.80011,0,0,0,14.81372-6.138l85.275-85.27136a20.94511,20.94511,0,0,0,0-29.6203Zm-7.48761,22.13983-85.275,85.27143a10.23665,10.23665,0,0,1-6.81641,3.01513c-34.49841-7.18616-58.31811,18.29193-79.33441,40.8194-3.751,4.0202-7.42663,7.96149-11.07715,11.61554L25.97518,261.21275a10.60093,10.60093,0,0,1-14.64862,0c-.05024-.05023-.10407-.10046-.1579-.15075-.90814-.83991-.944-3.89814,1.023-8.84442,12.56317-31.58735,86.85077-100.36872,137.19305-100.36872h.682a5.49876,5.49876,0,0,0,3.80847-1.55066L234.56636,69.607c2.37622-2.369,4.88166-3.86945,7.05689-4.22839,1.24554-.21534,3.14081-.22254,5.34473,1.98138a10.35993,10.35993,0,0,1-.00361,14.65222Z"/>
        <path class="cls-2" d="M198.97316,17.92583c-2.53058-8.57166-9.44024-15.37726-17.60632-17.3443C173.75716-1.2491,166.248,1.27788,160.19619,7.66c-.06824.07178-.12922.13641-.19025.20819l-27.402,32.26214C114.30843,58.42937,107.28383,58.336,88.41756,58.02739l-6.759-.07184a5.29144,5.29144,0,0,0-3.74378,9.03113L99.71364,88.78191c3.78327,3.79046,13.52155,8.7583,24.17505,8.7583a29.39671,29.39671,0,0,0,20.50305-7.93988L193.4562,40.53227A22.72644,22.72644,0,0,0,198.97316,17.92583ZM185.8788,33.138,137.04769,81.9763c-11.18122,10.38074-27.25122,1.91675-29.84644-.6748L94.58071,68.68089h.12921c16.18847,0,26.361-2.046,45.66882-21.37884l27.59223-32.456c3.36334-3.51049,7.143-4.8601,10.92273-3.97,4.48327,1.07685,8.47113,5.11145,9.92486,10.05054A12.17611,12.17611,0,0,1,185.8788,33.138Z"/>
      </g>
    </g>
  </g>
</svg>
