<svg xmlns="http://www.w3.org/2000/svg" xmlns:xlink="http://www.w3.org/1999/xlink" viewBox="0 0 258.90114 260.77616">
  <defs>
    <style>
      .cls-1 {
        fill: url(#Безымянный_градиент_3);
      }

      .cls-2 {
        fill: url(#Безымянный_градиент_3-2);
      }

      .cls-3 {
        fill: url(#Безымянный_градиент_3-3);
      }

      .cls-4 {
        fill: url(#Безымянный_градиент_3-4);
      }
    </style>
    <linearGradient id="Безымянный_градиент_3" data-name="Безымянный градиент 3" y1="221.18045" x2="258.90114" y2="221.18045" gradientUnits="userSpaceOnUse">
      <stop offset="0" stop-color="#638bf5"/>
      <stop offset="1" stop-color="#98c5e5"/>
    </linearGradient>
    <linearGradient id="Безымянный_градиент_3-2" x1="166.60874" y1="255.46602" x2="213.34003" y2="255.46602" xlink:href="#Безымянный_градиент_3"/>
    <linearGradient id="Безымянный_градиент_3-3" x1="64.00888" y1="127.92028" x2="194.89226" y2="127.92028" xlink:href="#Безымянный_градиент_3"/>
    <linearGradient id="Безымянный_градиент_3-4" x1="67.99025" y1="30.57027" x2="190.91103" y2="30.57027" xlink:href="#Безымянный_градиент_3"/>
  </defs>
  <title>хирургия</title>
  <g id="Слой_2" data-name="Слой 2">
    <g id="Слой_1-2" data-name="Слой 1">
      <path class="cls-1" d="M9.44389,260.76408A5.29366,5.29366,0,0,1,4.214,256.227L.05743,227.46458A5.33983,5.33983,0,0,1,0,226.7072v-4.92475c0-14.383,15.11884-22.1183,28.06246-24.37248,16.56539-2.88235,47.162-9.286,56.74949-14.99321a5.31156,5.31156,0,0,1,2.03523-.70354c2.66338-.31228,5.89031,1.27426,6.53642,3.88381,6.942,27.98708,20.704,45.39241,35.91621,45.42112h.03949c15.25524,0,29.12135-17.40533,36.189-45.43907a5.33961,5.33961,0,0,1,5.80417-3.95918,9.45414,9.45414,0,0,1,2.76389.79686c9.58747,5.70366,40.17692,12.11086,56.74231,14.99321,12.94362,2.25418,28.06246,9.98949,28.06246,24.37248v4.92475a4.85888,4.85888,0,0,1-.05743.75738l-4.153,28.76241a5.29152,5.29152,0,0,1-10.47407-1.51476l4.09558-28.38551v-4.54427c0-7.27226-9.99667-12.32623-19.2898-13.94149-9.62336-1.67628-39.22929-7.161-54.883-13.6651-8.927,29.83206-25.417,47.42764-44.80015,47.42764h-.061C109.931,241.5676,93.54512,223.972,84.74734,194.183,69.08649,200.68715,39.4985,206.16468,29.87873,207.841c-9.29313,1.61526-19.2898,6.66923-19.2898,13.94149v4.54786l4.09917,28.38192a5.28827,5.28827,0,0,1-4.47965,5.99441A5.05171,5.05171,0,0,1,9.44389,260.76408Z"/>
      <path class="cls-2" d="M208.04556,260.76049H171.90321a5.29447,5.29447,0,1,1,0-10.58893h36.14235a5.29447,5.29447,0,1,1,0,10.58893Z"/>
      <path class="cls-3" d="M183.82026,102.11324c.00714-.66773.043-1.4358.07178-2.082.04663-1.07666.09692-2.21826.09692-3.39209,0-11.76611-2.17883-19.085-6.84515-22.96167-6.00513-6.23486-14.91779-4.9104-26.50818,3.95191-1.42145,1.08765-2.6706,2.09985-3.82642,3.04028-5.456,4.43677-7.71014,6.27442-17.27606,6.429-9.72748-.15454-11.98883-1.99219-17.44122-6.429-1.15583-.94043-2.405-1.95263-3.82642-3.04028-11.59393-8.866-20.52454-10.19043-26.50818-3.95191C77.091,77.55415,74.91218,84.873,74.91218,96.63911c0,1.17383.05029,2.31543.09692,3.39209.02875.64624.061,1.41431.07178,2.082-6.89893,1.44653-11.18115,8.15869-11.06989,17.61352a33.31369,33.31369,0,0,0,5.32319,18.40674c3.10845,4.75952,7.20764,7.5415,11.36065,7.95776,8.51782,24.74219,26.91022,39.93286,48.75574,39.93286,21.85266,0,40.25232-15.20141,48.76654-39.96142,4.32886-.51685,8.30243-3.27368,11.29242-7.843a33.2802,33.2802,0,0,0,5.38061-18.37817C195.00141,110.27925,190.71918,103.55977,183.82026,102.11324Zm.48816,17.72119A23.164,23.164,0,0,1,180.7082,132.34c-.639.97632-2.31525,3.2522-4.41864,3.28443l-1.102-.17237a5.32482,5.32482,0,0,0-5.90106,3.75464c-6.49335,22.3479-21.7594,36.23218-39.83594,36.23218S96.108,161.55464,89.61463,139.20674a5.2857,5.2857,0,0,0-5.90106-3.75464l-1.50037.115c-1.364-.262-2.68493-1.18457-4.07763-3.31323a23.21079,23.21079,0,0,1-3.54285-12.53442c-.01074-1.188.07538-7.12866,3.12286-7.30445,8.4137-.4917,8.03321-9.14965,7.86811-12.84668-.03949-.92968-.08258-1.91333-.08258-2.9292,0-11.89184,2.57727-14.47973,3.09411-14.87817a5.47678,5.47678,0,0,0,.68921-.6355c1.60809-1.75512,6.17749.04322,12.556,4.91773,1.32806,1.0122,2.49109,1.95971,3.57153,2.83911,6.741,5.48486,11.18116,8.59692,24.12122,8.79785,12.7749-.20093,17.21149-3.313,23.95612-8.79785,1.08038-.8794,2.2434-1.82691,3.57147-2.83911,6.38568-4.87818,10.95147-6.67652,12.556-4.91773a5.23912,5.23912,0,0,0,.68921.6355c.51684.39844,3.09411,2.98633,3.09411,14.87817,0,1.01587-.04309,1.99952-.08258,2.9292-.1651,3.697-.54559,12.355,7.8681,12.84668C184.233,112.59078,184.31916,118.53145,184.30842,119.83443Z"/>
      <path class="cls-4" d="M181.97884,61.13941a5.01128,5.01128,0,0,1-.61021-.0359,5.29337,5.29337,0,0,1-4.65554-5.8616l3.50333-30.532c-3.8192-4.11712-26.27132-14.121-50.76226-14.121-24.5053,0-46.95742,10.00385-50.76943,14.11738l3.50332,30.5356A5.293,5.293,0,1,1,71.67091,56.448L68.03836,24.78169a8.724,8.724,0,0,1,2.56288-6.881C78.13913,9.45107,104.90938,0,129.45416,0s51.315,9.45466,58.85292,17.90786a8.72158,8.72158,0,0,1,2.5557,6.87742L187.23024,56.448A5.29417,5.29417,0,0,1,181.97884,61.13941Z"/>
    </g>
  </g>
</svg>
