<svg xmlns="http://www.w3.org/2000/svg" xmlns:xlink="http://www.w3.org/1999/xlink" viewBox="0 0 224.33731 264.09876">
  <defs>
    <style>
      .cls-1 {
        fill: url(#Безымянный_градиент_3);
      }
    </style>
    <linearGradient id="Безымянный_градиент_3" data-name="Безымянный градиент 3" y1="132.04938" x2="224.33731" y2="132.04938" gradientUnits="userSpaceOnUse">
      <stop offset="0" stop-color="#638bf5"/>
      <stop offset="1" stop-color="#98c5e5"/>
    </linearGradient>
  </defs>
  <title>импланты</title>
  <g id="Слой_2" data-name="Слой 2">
    <g id="Слой_1-2" data-name="Слой 1">
      <path class="cls-1" d="M222.326,33.26007c-3.83349-12.01751-13.14465-21.67321-27.6748-28.70135-21.25684-10.27307-45.895-1.09125-67.63281,7.01379-10.97657,4.092-21.37891,7.96863-29.63453,8.63623q-1.89532-1.49679-3.65417-2.92181c-1.95264-1.57214-3.78333-3.04382-5.53491-4.33606C72.96824,1.76612,55.07835-1.47162,37.7772,3.83362,19.82969,9.33985,8.121,18.57917,2.988,31.30024c-9.986,24.73858,7.31531,55.98132,18.75854,76.64947,11.27088,20.37384,22.23316,21.21375,38.81653,22.48444l3.68274.26562,2.972-.02154,2.06042,21.75219H59.21348a5.29087,5.29087,0,1,0,0,10.58173H70.28331L72.473,186.1427H62.75987a5.29087,5.29087,0,1,0,0,10.58173h10.718l2.1897,23.13055H66.31334a5.29087,5.29087,0,0,0,0,10.58173H76.67259l2.73523,28.87372a5.29326,5.29326,0,0,0,5.26929,4.78833h54.99072a5.29353,5.29353,0,0,0,5.26929-4.78833l2.7351-28.87372h10.36646a5.29087,5.29087,0,0,0,0-10.58173h-9.36133l2.19678-23.13055h10.71094a5.29087,5.29087,0,0,0,0-10.58173h-9.70594l2.18958-23.13055h11.06982a5.29087,5.29087,0,1,0,0-10.58173H155.07384l2.12487-22.39831,8.55017-.06458c20.23023-.13641,24.37964-.79687,35.14087-20.80456l3.209-5.87958C214.93883,83.59876,229.77061,56.63471,222.326,33.26007ZM134.85069,253.517H89.49425l-2.1897-23.08032h49.73572Zm3.19458-33.662H86.29954L84.11,196.72443h56.13208Zm3.19458-33.71228h-58.135l-2.18945-23.13055h62.52124Zm3.20191-33.71228H79.91026l-2.0675-21.824,68.71679-.5025ZM194.82359,98.1792l-3.2522,5.9657c-8.13366,15.11884-8.13366,15.11884-26.18872,15.24085l-100.74914.74664-3.25928-.25128c-15.90857-1.2204-21.85266-1.67267-30.36682-17.05713C20.53331,83.90747,4.70372,55.32813,12.8087,35.263c3.87671-9.61261,13.32422-16.78436,28.0697-21.30706a45.4033,45.4033,0,0,1,13.37439-2.06757c11.71606,0,21.17786,4.81708,27.6676,9.59106,1.64392,1.20606,3.34534,2.58442,5.16175,4.04895,1.62951,1.31373,3.374,2.72083,5.26208,4.15656a3.19532,3.19532,0,0,0,.30872.23694c7.88244,5.98724,18.23437,12.477,32.901,15.16192a5.29159,5.29159,0,1,0,1.90954-10.40948,59.74388,59.74388,0,0,1-17.53088-6.10925c6.58313-1.7804,13.56824-4.38636,20.78308-7.07843,19.75635-7.3584,42.14038-15.72187,59.32666-7.39429,11.98169,5.7934,19.2395,13.11591,22.19727,22.38391C218.30577,55.51477,204.73765,80.17444,194.82359,98.1792Z"/>
    </g>
  </g>
</svg>
