<svg xmlns="http://www.w3.org/2000/svg" xmlns:xlink="http://www.w3.org/1999/xlink" viewBox="0 0 260.23969 268.80899">
  <defs>
    <style>
      .cls-1 {
        fill: url(#Безымянный_градиент_3);
      }
    </style>
    <linearGradient id="Безымянный_градиент_3" data-name="Безымянный градиент 3" y1="134.4045" x2="260.23969" y2="134.4045" gradientUnits="userSpaceOnUse">
      <stop offset="0" stop-color="#638bf5"/>
      <stop offset="1" stop-color="#98c5e5"/>
    </linearGradient>
  </defs>
  <title>лечение</title>
  <g id="Слой_2" data-name="Слой 2">
    <g id="Слой_1-2" data-name="Слой 1">
      <path class="cls-1" d="M258.689,116.4899,228.77442,86.57169l6.19532-6.20264a10.78034,10.78034,0,0,0,3.38134-11.14526l-4.35034-26.70923a10.74771,10.74771,0,0,0-2.90039-5.24781L196.99317,3.15958l-3.74023,3.74389,3.647-3.84082a11.05216,11.05216,0,0,0-15.26953-.00354L139.43971,45.24258a10.80194,10.80194,0,0,0,.0072,15.2732l3.42432,3.42431L90.21375,93.07584a5.27785,5.27785,0,0,0-1.17736.88647L11.45362,171.54874l-2.41919,2.35107c-5.614,5.395-12.60632,12.11084-6.92773,22.95825a74.55756,74.55756,0,0,0,10.33765,14.84961,34.19535,34.19535,0,0,0-6.76978,32.28369c3.5752,12.21143,12.74268,21.08814,24.53052,23.74793A47.27691,47.27691,0,0,0,40.636,268.809c11.42163,0,24.60937-3.15869,39.31909-6.67651,3.374-.80762,6.82715-1.63306,10.33764-2.4408,26.20313-6.00159,56.53418-11.27454,85.06324,2.35474a5.29175,5.29175,0,0,0,4.56579-9.548c-30.087-14.37939-61.99731-10.0039-91.99817-3.1228-3.53906.81116-7.021,1.64392-10.4309,2.46228-18.14112,4.33606-33.79126,8.087-44.96167,5.578-7.97583-1.80188-14.22144-7.93261-16.691-16.3966-2.34034-7.98657-.76819-16.04138,4.1853-21.89221a73.78214,73.78214,0,0,0,13.62561,9.2644c10.82593,5.657,16.05212.201,21.12048-5.08618l79.90869-79.977a5.37958,5.37958,0,0,0,.86145-1.13062l30.99866-54.585,6.92761,6.92761a10.8343,10.8343,0,0,0,4.61621,2.85718,4.75041,4.75041,0,0,0,.71778.1687l24.50171,5.86524a10.78652,10.78652,0,0,0,11.19922-2.55579,3.341,3.341,0,0,0,.26562-.29077l6.53272-6.51831,29.90747,29.91089a5.292,5.292,0,0,0,7.48046-7.48755ZM158.23414,80.807,126.69,136.34683,49.617,213.427c-.90454.901-1.723,1.75525-2.49121,2.55579-4.78833,5.00732-4.79541,5.00732-8.56445,3.033A65.756,65.756,0,0,1,11.48243,191.944c-1.76611-3.374-1.22046-4.54419,4.8888-10.40942l79.62158-79.55689L149.641,72.28922a5.35945,5.35945,0,0,0,.92615-.64966l8.2915,8.28808A4.98517,4.98517,0,0,0,158.23414,80.807Zm17.23657.68554L147.02784,52.62967l42.38452-42.08289L217.99879,38.961Zm42.083,1.33887c-.10059.10059-.19385.20093-.28711.30872l-.00732-.01087L207.02223,93.36661c-.0503.05017-.10059.10034-.14356.15063l-.09338-.08252a5.09734,5.09734,0,0,0-.7107-.22607l-22.068-5.28015,40.13745-40.13745,3.8335,23.58642a5.23391,5.23391,0,0,0,.28711,1.04456Z"/>
    </g>
  </g>
</svg>
