<svg xmlns="http://www.w3.org/2000/svg" xmlns:xlink="http://www.w3.org/1999/xlink" viewBox="0 0 258.56185 252.3002">
  <defs>
    <style>
      .cls-1 {
        fill: url(#Безымянный_градиент_3);
      }

      .cls-2 {
        fill: url(#Безымянный_градиент_3-2);
      }

      .cls-3 {
        fill: url(#Безымянный_градиент_3-3);
      }
    </style>
    <linearGradient id="Безымянный_градиент_3" data-name="Безымянный градиент 3" y1="126.1501" x2="258.56185" y2="126.1501" gradientUnits="userSpaceOnUse">
      <stop offset="0" stop-color="#638bf5"/>
      <stop offset="1" stop-color="#98c5e5"/>
    </linearGradient>
    <linearGradient id="Безымянный_градиент_3-2" x1="77.65094" y1="135.2261" x2="151.59039" y2="135.2261" xlink:href="#Безымянный_градиент_3"/>
    <linearGradient id="Безымянный_градиент_3-3" x1="98.76782" y1="135.2261" x2="130.46997" y2="135.2261" xlink:href="#Безымянный_градиент_3"/>
  </defs>
  <title>профилактика</title>
  <g id="Слой_2" data-name="Слой 2">
    <g id="Слой_1-2" data-name="Слой 1">
      <g>
        <path class="cls-1" d="M256.61469,242.91006c-22.165-18.07641-15.59266-44.25085-7.983-74.5675,2.18958-8.71521,4.45093-17.73206,6.03028-26.756,6.87744-39.36206.83636-66.79993-17.95813-81.54541-30.09406-23.60437-83.3833-8.21277-123.19409,9.11718H58.03094l133.259-35.708a5.29262,5.29262,0,0,0,1.91681-9.26087A111.84126,111.84126,0,0,0,19.68463,70.68033a5.88791,5.88791,0,0,0-.201.61743c-.05023.06445-.09692.13635-.14355.20813a114.61886,114.61886,0,1,0,190.55768,0,5.28135,5.28135,0,0,0-4.39716-2.34754H142.57727c40.02258-13.70459,70.6156-14.10669,87.59375-.78967,15.485,12.14673,20.21594,36.16748,14.06,71.39453-1.50757,8.64343-3.72229,17.46631-5.86524,26.00208-7.77838,30.98437-15.82232,63.01672,11.55811,85.34326a5.29108,5.29108,0,1,0,6.6908-8.19849ZM114.6189,87.72305A47.49945,47.49945,0,1,1,67.12305,135.2261,47.55643,47.55643,0,0,1,114.6189,87.72305ZM97.48639,13.99539a102.51118,102.51118,0,0,1,26.51178-3.5177,100.004,100.004,0,0,1,53.69488,15.65723L34.09277,64.61416A100.26312,100.26312,0,0,1,97.48639,13.99539Zm105.1427,65.74475a104.0282,104.0282,0,1,1-176.02393,0H97.40741a58.08478,58.08478,0,1,0,34.423,0Z"/>
        <path class="cls-2" d="M114.6189,98.26175a36.96436,36.96436,0,1,0,36.97149,36.96435A37.00856,37.00856,0,0,0,114.6189,98.26175Zm0,63.34692a26.38257,26.38257,0,1,1,26.38256-26.38257A26.41306,26.41306,0,0,1,114.6189,161.60867Z"/>
        <path class="cls-3" d="M114.6189,119.375A15.85108,15.85108,0,1,0,130.47,135.2261,15.86661,15.86661,0,0,0,114.6189,119.375Zm0,21.12048a5.26942,5.26942,0,1,1,5.26214-5.26941A5.269,5.269,0,0,1,114.6189,140.49551Z"/>
      </g>
    </g>
  </g>
</svg>
