<svg xmlns="http://www.w3.org/2000/svg" xmlns:xlink="http://www.w3.org/1999/xlink" viewBox="0 0 266.32422 265.0752">
  <defs>
    <style>
      .cls-1 {
        fill: url(#Безымянный_градиент_3);
      }

      .cls-2 {
        fill: url(#Безымянный_градиент_3-2);
      }

      .cls-3 {
        fill: url(#Безымянный_градиент_3-3);
      }

      .cls-4 {
        fill: url(#Безымянный_градиент_3-4);
      }
    </style>
    <linearGradient id="Безымянный_градиент_3" data-name="Безымянный градиент 3" x1="193.76669" y1="222.35331" x2="253.54569" y2="222.35331" gradientUnits="userSpaceOnUse">
      <stop offset="0" stop-color="#638bf5"/>
      <stop offset="1" stop-color="#98c5e5"/>
    </linearGradient>
    <linearGradient id="Безымянный_градиент_3-2" x1="0" y1="132.5376" x2="266.32422" y2="132.5376" xlink:href="#Безымянный_градиент_3"/>
    <linearGradient id="Безымянный_градиент_3-3" x1="47.13081" y1="129.09224" x2="182.58461" y2="129.09224" xlink:href="#Безымянный_градиент_3"/>
    <linearGradient id="Безымянный_градиент_3-4" x1="130.20119" y1="59.55655" x2="212.5733" y2="59.55655" xlink:href="#Безымянный_градиент_3"/>
  </defs>
  <title>реставрация</title>
  <g id="Слой_2" data-name="Слой 2">
    <g id="Слой_1-2" data-name="Слой 1">
      <path class="cls-1" d="M193.76669,205.77715l46.51233,46.5195,13.26667-13.27026L206.93286,192.41A118.42776,118.42776,0,0,1,193.76669,205.77715Z"/>
      <path class="cls-2" d="M264.77368,235.28271l-51.35107-51.35107a117.32335,117.32335,0,1,0-28.02661,28.4502l51.14282,51.14257a5.28579,5.28579,0,0,0,7.48047,0l20.75439-20.75415a5.29494,5.29494,0,0,0,0-7.48755ZM117.17456,223.75684a106.58387,106.58387,0,1,1,106.58569-106.5857A106.70941,106.70941,0,0,1,117.17456,223.75684Z"/>
      <path class="cls-3" d="M163.88086,56.48755C150.571,50.041,135.68921,55.60815,122.53,60.51489c-5.9082,2.20386-11.5293,4.304-15.937,4.84937-.48828-.39112-.96216-.77539-1.436-1.15918-1.16284-.937-2.26123-1.82007-3.30932-2.5918-9.50489-6.97778-20.6897-8.988-31.48682-5.6748-10.16528,3.1228-16.83472,8.02954-20.3811,15.0039-6.25293,12.301-1.0481,27.39844,4.45825,43.38233l.46655,1.35327a74.67006,74.67006,0,0,0,6.06616,12.17554c2.42652,4.239,5.45606,9.512,5.499,12.1538l.04321,3.38135c.2583,20.67529.73218,59.16162,27.323,61.2041.12915.01075.26562.01783.4021.01783a5.30434,5.30434,0,0,0,3.24463-1.10914c6.61914-5.133,5.45605-14.52294,4.22143-24.46948-1.82348-14.75268-2.19678-23.97046,8.0332-27.54907,9.26075-3.23779,15.19776-1.24561,19.23951,6.48608,3.30224,6.30664,2.23974,14.26831,1.21338,21.9712-.21558,1.59375-.41651,3.14794-.58155,4.63745-1.0122,9.30761,1.74439,16.62646,7.20752,19.10693,2.74243,1.23462,8.24854,2.24341,14.7959-4.87109,13.43164-14.61988,13.281-44.21485,13.2019-60.1128-.00708-2.05664,3.02955-8.52124,5.47754-13.71533C179.66016,105.05664,195.33887,71.70337,163.88086,56.48755Zm-3.1731,63.99292c-3.769,8.02612-6.49707,13.82324-6.47558,18.27051.0647,13.42114.20825,41.33984-10.41651,52.898a22.17,22.17,0,0,1-2.62036,2.33691c-.488-.62451-1.62231-3.14087-1.0625-8.26318.15088-1.41065.35181-2.87867.553-4.38257,1.12695-8.46411,2.52686-18.999-2.33325-28.27783-4.70239-8.9917-11.96021-13.62915-20.99829-13.62915a33.764,33.764,0,0,0-11.106,2.05664c-19.03857,6.65844-16.63354,26.02734-15.04712,38.84521.52417,4.22852,1.25635,10.17261.603,13.15894-14.13525-4.51538-14.50147-33.967-14.70239-50.238l-.0503-3.428c-.08618-5.36255-3.3955-11.1311-6.89892-17.24023a68.42045,68.42045,0,0,1-5.24072-10.35572l-.46656-1.35669c-4.75952-13.80151-9.24634-26.835-5.02514-35.13378,2.175-4.28223,6.76953-7.448,14.042-9.68091,9.6914-2.96826,17.35864.58886,22.11108,4.0813.93335.68579,1.90235,1.468,2.93628,2.30444,5.14722,4.15308,12.19678,9.84228,23.53247,11.917a5.29155,5.29155,0,1,0,1.90943-10.40942,34.306,34.306,0,0,1-4.36475-1.10181c2.17529-.75024,4.39355-1.57593,6.64771-2.41943,11.709-4.36109,23.81274-8.873,33.03759-4.41846C179.64575,75.87061,171.97876,96.51367,160.70776,120.48047Z"/>
      <path class="cls-4" d="M207.27745,98.52743a5.29958,5.29958,0,0,1-5.07551-3.79047,92.32369,92.32369,0,0,0-67.884-63.6987A5.29423,5.29423,0,0,1,136.67262,20.715,102.9358,102.9358,0,0,1,212.353,91.729a5.29493,5.29493,0,0,1-3.56793,6.5795A5.37587,5.37587,0,0,1,207.27745,98.52743Z"/>
    </g>
  </g>
</svg>
