<svg xmlns="http://www.w3.org/2000/svg" xmlns:xlink="http://www.w3.org/1999/xlink" viewBox="0 0 267.44084 267.4121">
  <defs>
    <style>
      .cls-1 {
        fill: url(#Безымянный_градиент_3);
      }

      .cls-2 {
        fill: url(#Безымянный_градиент_3-2);
      }
    </style>
    <linearGradient id="Безымянный_градиент_3" data-name="Безымянный градиент 3" y1="133.70605" x2="267.44084" y2="133.70605" gradientUnits="userSpaceOnUse">
      <stop offset="0" stop-color="#638bf5"/>
      <stop offset="1" stop-color="#98c5e5"/>
    </linearGradient>
    <linearGradient id="Безымянный_градиент_3-2" x1="161.79608" y1="92.43554" x2="188.10693" y2="92.43554" xlink:href="#Безымянный_градиент_3"/>
  </defs>
  <title>удаление</title>
  <g id="Слой_2" data-name="Слой 2">
    <g id="Слой_1-2" data-name="Слой 1">
      <g>
        <path class="cls-1" d="M264.55538,46.78905a15.99308,15.99308,0,0,0-28.85205,6.3606v.0072c-1.47168,8.33472-6.84887,14.7312-14.37939,17.10022-7.574,2.39771-15.54248.14356-21.86719-6.181a35.02938,35.02938,0,0,0-5.80762-4.69507,5.28781,5.28781,0,0,0,.02857-2.01721,20.06963,20.06963,0,0,1,3.66138-14.97534A26.32417,26.32417,0,0,1,214.25973,31.699,15.98308,15.98308,0,1,0,208.3945.27685c-28.94556,6.71228-35.4065,23.33154-41.645,39.40515a128.03633,128.03633,0,0,1-6.84156,15.49939,5.20074,5.20074,0,0,0-.65332,2.48388,34.531,34.531,0,0,0-8.80127,6.41077c-8.57177,8.56445-20.6394,9.69873-35.91626,11.13452-10.4165.97632-22.21875,2.08191-34.47314,5.97278-17.86841,5.67139-36.06714,18.86633-49.92944,36.20337C14.635,136.76269,5.4819,163.052.54281,181.68139A16.00361,16.00361,0,0,0,30.70138,192.1411c4.46533-4.5227,9.63428-10.187,15.09033-16.17419,23.791-26.09546,56.3689-61.83936,83.75659-63.05261,7.947-.323,14.803,2.27575,21.063,8.0332a37.21234,37.21234,0,0,0,7.21485,5.19751,5.21713,5.21713,0,0,0-.14356,3.41016c7.76758,26.22461-35.866,65.17029-64.73974,90.94262-6.94922,6.20264-13.00806,11.6084-17.67457,16.20289a16.01157,16.01157,0,0,0,6.3462,30.71142,16.21549,16.21549,0,0,0,4.10644-.53833c18.6294-4.94629,44.9043-14.09228,64.29444-29.59875,17.34423-13.86255,30.5393-32.06116,36.21069-49.92957,4.1709-13.15894,4.4436-25.69336,4.68774-36.7561.165-7.63843.323-14.86035,1.7876-20.94092a5.283,5.283,0,0,0-.34473-3.46753,33.61817,33.61817,0,0,0,7.07862-5.36975c8.665-8.56445,18.29907-12.97949,27.61718-17.251,16.36817-7.50915,33.28882-15.26965,40.1377-44.82532A15.85554,15.85554,0,0,0,264.55538,46.78905Zm-87.94189-3.27343c5.96558-15.35584,10.675-27.481,33.906-32.87244a5.38991,5.38991,0,0,1,6.26,4.37915,5.39937,5.39937,0,0,1-4.37207,6.25281,36.96753,36.96753,0,0,0-23.74781,15.0542,31.24121,31.24121,0,0,0-5.83642,18.48584A34.97864,34.97864,0,0,0,174.955,53.925c-.89013,0-1.77319.03589-2.65625.10046C173.914,50.46484,175.278,46.95434,176.61349,43.51562Zm3.71851,106.844c-.23682,10.85449-.481,22.0752-4.19947,33.78418-5.0542,15.92285-16.97827,32.27637-32.72168,44.86108C125.45626,243.36278,100.653,251.95592,83,256.63659a5.42076,5.42076,0,0,1-3.10839-10.38074,5.21876,5.21876,0,0,0,2.0603-1.27783c4.55859-4.55151,10.80444-10.1294,18.04077-16.58338,31.55859-28.17,74.36646-66.36926,68.6665-98.35144a35.30473,35.30473,0,0,0,13.13746.00721C180.63351,136.42528,180.48287,143.22387,180.332,150.35961Zm76.49169-93.74243c-5.62109,24.22168-18.22021,30.00073-34.17895,37.316-9.68433,4.44372-20.65381,9.4762-30.647,19.35437-9.36841,9.25366-24.0708,9.18909-34.22193-.13635-8.32763-7.64563-17.97607-11.2782-28.69409-10.81153-31.78125,1.40711-66.07495,39.02478-91.11523,66.49854-5.7,6.24573-11.07715,12.15393-15.54224,16.61926a5.3449,5.3449,0,0,0-1.28516,2.06751,5.41575,5.41575,0,0,1-10.36645-3.12293c4.68066-17.65295,13.28125-42.46338,27.63184-60.40356,12.58471-15.74341,28.93823-27.66748,44.86108-32.72144,11.17065-3.54651,21.89575-4.55151,32.26221-5.52783,16.009-1.50757,31.135-2.92188,42.406-14.19287a24.10834,24.10834,0,0,1,34.04248,0c9.0669,9.06714,21.21387,12.355,32.52783,8.80151,11.19922-3.5321,19.48365-13.24512,21.62305-25.36328a5.40381,5.40381,0,0,1,9.74878-2.13928A5.28088,5.28088,0,0,1,256.82369,56.61718Z"/>
        <path class="cls-2" d="M184.25167,83.1289v-.00708a13.18489,13.18489,0,0,0-18.60058.00708,13.15552,13.15552,0,0,0,9.29687,22.45581h.00708a13.1526,13.1526,0,0,0,9.29663-22.45581ZM176.7712,94.249c-1.30639,1.29224-2.29,1.33533-3.63964-.01428a2.52886,2.52886,0,0,1-.75367-1.80188A2.57361,2.57361,0,1,1,176.7712,94.249Z"/>
      </g>
    </g>
  </g>
</svg>
