<svg xmlns="http://www.w3.org/2000/svg" xmlns:xlink="http://www.w3.org/1999/xlink" viewBox="0 0 224.65978 250.22191">
  <defs>
    <style>
      .cls-1 {
        fill: url(#Безымянный_градиент_3);
      }
    </style>
    <linearGradient id="Безымянный_градиент_3" data-name="Безымянный градиент 3" y1="125.11096" x2="224.65978" y2="125.11096" gradientUnits="userSpaceOnUse">
      <stop offset="0" stop-color="#638bf5"/>
      <stop offset="1" stop-color="#98c5e5"/>
    </linearGradient>
  </defs>
  <title>виниры</title>
  <g id="Слой_2" data-name="Слой 2">
    <g id="Слой_1-2" data-name="Слой 1">
      <path class="cls-1" d="M222.48908,33.00878c-3.927-11.95288-13.177-21.52246-27.48828-28.45007-21.25317-10.27307-45.8949-1.09119-67.63269,7.01379-10.973,4.092-21.38245,7.96875-29.63464,8.63623-1.26709-.9906-2.48035-1.967-3.65406-2.91455-1.94909-1.57227-3.78332-3.044-5.53857-4.33618C73.31794,1.759,55.41364-1.47157,38.11958,3.83373,19.85285,9.44042,7.99323,19.04589,2.87458,32.36986-7.81121,60.19555,13.80085,96.28393,26.71589,117.8496c1.76587,2.95044,3.654,6.10913,5.08984,8.63623a4.72243,4.72243,0,0,0,.45581.81116,22.54345,22.54345,0,0,1,1.86646,3.8479l.08264,6.181c.44861,38.32837,1.2887,109.67261,43.16687,112.88159a3.85554,3.85554,0,0,0,.40576.0144,5.30542,5.30542,0,0,0,3.24121-1.10559c9.61621-7.45178,7.75318-22.45568,5.78614-38.33557-3.155-25.44922-3.84058-43.99963,16.18859-51.00635,17.66016-6.17382,29.55213-2.09619,37.37354,12.86475,6.181,11.81653,4.20325,26.6626,2.45886,39.74976-.359,2.68493-.70727,5.29089-.98,7.80346-1.55066,14.21436,2.33313,25.24121,10.1294,28.7804,3.71508,1.68713,11.3894,2.965,20.94458-7.43018,19.51245-21.22094,21.77014-71.29406,21.55835-112.54419a11.27883,11.27883,0,0,1,.48461-2.95764c.05738-.16528.104-.33752.14722-.50976,1.52539-5.07557,5.57788-12.77137,9.53-20.259C215.45722,84.76171,230.2674,56.67772,222.48908,33.00878ZM165.13654,234.37792c-3.5249,3.83362-6.96,5.79346-8.7799,4.95361-2.35108-1.0625-5.14014-7.35131-3.98072-17.99047.26563-2.4336.603-4.9607.94764-7.55225,1.95263-14.65222,4.16735-31.25708-3.56788-46.06006-7.38354-14.10669-18.42114-21.28552-32.4237-21.28552a54.33806,54.33806,0,0,0-17.829,3.33825C69.86481,160.14782,73.5871,190.163,76.30427,212.08019c1.364,11.01257,2.77112,22.35523-.4845,27.26563-29.88953-5.52771-30.65405-70.50428-31.0238-102.142l-.08618-6.2312a8.75031,8.75031,0,0,0-.13282-1.364H183.89863C184.0207,153.11962,184.1822,213.66674,165.13654,234.37792Zm30.14429-134.045c-3.7439,7.10717-7.0282,13.3313-9.0957,18.694H39.71687c-1.10193-1.90235-2.40137-4.07764-3.91968-6.61182C23.873,92.50072,3.91914,59.176,12.75642,36.16759,16.70478,25.88732,26.01594,18.62231,41.2281,13.95592c17.94372-5.499,32.22973,1.0553,41.04553,7.53064C83.914,22.69274,85.619,24.071,87.43525,25.53564c8.47119,6.82714,20.07239,16.18127,38.46838,19.54809a5.29156,5.29156,0,0,0,1.90955-10.40942,59.77306,59.77306,0,0,1-17.53088-6.10926c6.583-1.78039,13.56811-4.38635,20.78662-7.07849,19.75268-7.3584,42.15112-15.70739,59.323-7.39428,11.79151,5.70019,19.00269,12.97241,22.03931,22.21887C218.80988,55.71581,205.762,80.45446,195.28083,100.33288Z"/>
    </g>
  </g>
</svg>
