<svg xmlns="http://www.w3.org/2000/svg" xmlns:xlink="http://www.w3.org/1999/xlink"><symbol id="icon-arr-left" viewBox="0 0 19 34"><path d="M18.379 33.47a2.477 2.477 0 00.248-2.89L5.241 16.49 18.806 3.04A2.36 2.36 0 0018.379.5c-1.088-1.1-2.747 0-2.747 0L0 15.99v1.02l15.629 16.45s1.526 1.24 2.75.01z" fill-rule="evenodd"/></symbol><symbol id="icon-arr-right" viewBox="0 0 19 34"><path d="M.621 33.47a2.477 2.477 0 01-.248-2.89l13.386-14.09L.194 3.04A2.36 2.36 0 01.621.5C1.709-.6 3.368.5 3.368.5L19 15.99v1.02L3.371 33.46s-1.526 1.24-2.75.01z" fill-rule="evenodd"/></symbol><symbol id="icon-menu-close" viewBox="0 0 30 30"><path fill-rule="evenodd" stroke-width="3" d="M27.228 3.186L15.914 14.5l11.314 11.314-1.414 1.414L14.5 15.914 3.186 27.228l-1.414-1.414L13.086 14.5 1.772 3.186l1.414-1.414L14.5 13.086 25.814 1.772l1.414 1.414z"/></symbol><symbol id="icon-menu-open" viewBox="0 0 28 20"><path d="M28 16.222H0v3.111h28v-3.11zM28 8.444H0v3.112h28V8.444zM28 .667H0v3.11h28V.668z"/></symbol><symbol id="icon-soc-fb" viewBox="0 0 7.19 13.874"><path d="M5.29-.004A3.121 3.121 0 002.98.85a3.218 3.218 0 00-.87 2.405v1.817H-.02v2.467h2.13v6.323h2.55V7.536h2.12l.32-2.467H4.66V3.493a1.361 1.361 0 01.25-.9 1.235 1.235 0 01.97-.3h1.31v-2.2a13.8 13.8 0 00-1.9-.1z" fill-rule="evenodd"/></symbol><symbol id="icon-soc-inst" viewBox="0 0 12.81 12.812"><path d="M6.4 8.536a2.144 2.144 0 111.51-.626 2.062 2.062 0 01-1.51.626zm0-5.418a3.274 3.274 0 102.33.958 3.157 3.157 0 00-2.33-.958zm3.42-.9a.777.777 0 10.54.225.736.736 0 00-.54-.225zm-1.9-1.071c.2 0 .47.011.8.025a6.425 6.425 0 01.86.083 3.322 3.322 0 01.6.154 2.1 2.1 0 01.73.484 2.333 2.333 0 01.49.733 3.324 3.324 0 01.15.6 6.284 6.284 0 01.08.858q.03.505.03.805v.879c0 .386-.01.6-.01.638s.01.251.01.637v.88q0 .3-.03.8a6.316 6.316 0 01-.08.859 3.311 3.311 0 01-.15.6 2.338 2.338 0 01-.49.734 2.116 2.116 0 01-.73.483 3.234 3.234 0 01-.6.155 6.6 6.6 0 01-.86.083c-.33.014-.6.022-.8.025s-.49 0-.88 0H4.89c-.2 0-.47-.011-.81-.025a6.972 6.972 0 01-.86-.083 3.328 3.328 0 01-.59-.155 2.255 2.255 0 01-.74-.483 2.153 2.153 0 01-.48-.734 3.311 3.311 0 01-.15-.6 8.18 8.18 0 01-.09-.859c-.01-.336-.02-.6-.02-.8V4.889c0-.2.01-.468.02-.805a8.129 8.129 0 01.09-.858 3.324 3.324 0 01.15-.6 2.149 2.149 0 01.48-.733 2.242 2.242 0 01.74-.484 3.423 3.423 0 01.59-.154 6.782 6.782 0 01.86-.083c.34-.014.61-.023.81-.025s.49 0 .88 0h1.27c.39-.003.68-.003.88 0zm4.84 2.613A3.539 3.539 0 009.05.042C8.56.014 7.68.001 6.4.001S4.25.014 3.76.042A3.554 3.554 0 00.04 3.76C.02 4.249 0 5.129 0 6.402s.02 2.153.04 2.642a3.553 3.553 0 003.72 3.717q.735.042 2.64.042c1.28 0 2.16-.014 2.65-.042a3.538 3.538 0 003.71-3.717c.03-.489.04-1.37.04-2.642s-.01-2.153-.04-2.642z" fill-rule="evenodd"/></symbol><symbol id="icon-soc-od" viewBox="0 0 8.97 14.937"><path d="M8.28 3.78a3.786 3.786 0 10-1.11 2.667A3.644 3.644 0 008.28 3.78zm-1.92 0a1.806 1.806 0 01-.55 1.312 1.779 1.779 0 01-1.31.546 1.818 1.818 0 01-1.32-.546 1.875 1.875 0 010-2.633 1.818 1.818 0 011.32-.546 1.779 1.779 0 011.31.546 1.818 1.818 0 01.55 1.321zm2.26 3.942a.914.914 0 00-.35-.183.819.819 0 00-.46.016 1.658 1.658 0 00-.55.292l-.31.209a4.042 4.042 0 01-1 .42 5.006 5.006 0 01-2.4.121 5.156 5.156 0 01-.76-.2 4.971 4.971 0 01-.58-.254q-.27-.146-.36-.2l-.12-.092a1.53 1.53 0 00-.54-.292.855.855 0 00-.47-.016.993.993 0 00-.35.183.824.824 0 00-.23.292 1.255 1.255 0 00-.13.412.743.743 0 00.04.338 1.013 1.013 0 00.22.321 2.461 2.461 0 00.36.308q.18.138.51.346a6.038 6.038 0 002.64.784l-.6.6-2.23 2.225a.843.843 0 00-.25.617.813.813 0 00.25.608l.1.109a.834.834 0 00.61.25.857.857 0 00.62-.25l2.22-2.234c1.12 1.111 1.86 1.856 2.23 2.234a.857.857 0 00.62.25.834.834 0 00.61-.25l.1-.109a.813.813 0 00.25-.608.843.843 0 00-.25-.617l-2.22-2.225-.61-.6a6.122 6.122 0 002.63-.784q.315-.209.51-.346a3.039 3.039 0 00.35-.308.87.87 0 00.22-.321.743.743 0 00.04-.338 1.216 1.216 0 00-.12-.412.987.987 0 00-.24-.296z" fill-rule="evenodd"/></symbol><symbol id="icon-soc-vk" viewBox="0 0 16 9.156"><path d="M15.93.59a.477.477 0 00-.26-.137 1.281 1.281 0 00-.53-.021l-2.4.017a.691.691 0 00-.17 0 .615.615 0 00-.11.025.384.384 0 01-.04.021l-.03.025a.291.291 0 00-.09.087.642.642 0 00-.09.146 13.838 13.838 0 01-.89 1.876q-.3.516-.57.9a3.9 3.9 0 01-.43.558 2.852 2.852 0 01-.32.288.287.287 0 01-.21.091c-.05-.011-.1-.022-.14-.033a.566.566 0 01-.19-.2.929.929 0 01-.1-.325c-.01-.131-.02-.243-.03-.338s0-.228.01-.4.01-.289.01-.35c0-.211 0-.44.01-.688s.01-.443.02-.587.01-.3.01-.459a1.87 1.87 0 00-.03-.379A1.272 1.272 0 009.27.44a.492.492 0 00-.17-.2 1.056 1.056 0 00-.28-.112A7.986 7.986 0 005.7.219a1.021 1.021 0 00-.31.25c-.1.123-.12.189-.05.2a1.014 1.014 0 01.71.359l.05.1a1.561 1.561 0 01.12.383 5.071 5.071 0 01.08.609 8.993 8.993 0 010 1.042c-.03.289-.06.514-.08.675a1.52 1.52 0 01-.12.392 1.2 1.2 0 01-.1.183.1.1 0 01-.04.042.634.634 0 01-.22.041.541.541 0 01-.29-.116 2.059 2.059 0 01-.34-.321 4.218 4.218 0 01-.41-.571c-.15-.245-.3-.534-.46-.867l-.14-.242c-.08-.155-.19-.382-.34-.679s-.27-.585-.38-.863a.582.582 0 00-.2-.267L3.14.544A.749.749 0 003 .474a.857.857 0 00-.19-.055L.53.436a.594.594 0 00-.48.158l-.03.05a.235.235 0 00-.03.134.758.758 0 00.05.225c.34.783.7 1.539 1.09 2.267s.73 1.314 1.02 1.759.59.864.89 1.258.49.648.59.759.18.194.23.25l.21.2a4.644 4.644 0 00.59.479 9.288 9.288 0 00.86.55 4.637 4.637 0 001.09.442 3.775 3.775 0 001.22.137h.96a.662.662 0 00.44-.183l.03-.042a.4.4 0 00.06-.154.824.824 0 00.03-.229 3.177 3.177 0 01.06-.646 1.752 1.752 0 01.14-.433.89.89 0 01.18-.246.765.765 0 01.14-.121.421.421 0 01.07-.029.526.526 0 01.47.129 2.878 2.878 0 01.51.483q.24.288.57.646a3.67 3.67 0 00.58.534l.17.1a1.929 1.929 0 00.43.183.936.936 0 00.47.042l2.13-.034a.94.94 0 00.49-.1.4.4 0 00.21-.229.662.662 0 00.01-.283.987.987 0 00-.06-.221.638.638 0 00-.06-.1 7.914 7.914 0 00-1.59-1.842.07.07 0 00-.04-.034q-.285-.258-.48-.442a1.5 1.5 0 01-.27-.358 2.093 2.093 0 01-.1-.287.526.526 0 01.1-.351 3.633 3.633 0 01.25-.412c.08-.117.24-.317.46-.6s.41-.531.54-.709c.96-1.278 1.38-2.095 1.25-2.45z" fill-rule="evenodd"/></symbol> <view id="icon-arr-left-view-blue" viewBox="0 0 19 34"/><view id="icon-arr-left-view-dark" viewBox="0 44 19 34"/><view id="icon-arr-left-view-white" viewBox="0 88 19 34"/><view id="icon-arr-right-view-blue" viewBox="0 132 19 34"/><view id="icon-arr-right-view-dark" viewBox="0 176 19 34"/><view id="icon-arr-right-view-white" viewBox="0 220 19 34"/><view id="icon-menu-close-view-blue" viewBox="0 264 30 30"/><view id="icon-menu-close-view-dark" viewBox="0 304 30 30"/><view id="icon-menu-close-view-white" viewBox="0 344 30 30"/><view id="icon-menu-open-view-blue" viewBox="0 384 28 20"/><view id="icon-menu-open-view-dark" viewBox="0 414 28 20"/><view id="icon-menu-open-view-white" viewBox="0 444 28 20"/><view id="icon-soc-fb-view-blue" viewBox="0 474 7.19 13.874"/><view id="icon-soc-fb-view-dark" viewBox="0 497.874 7.19 13.874"/><view id="icon-soc-fb-view-white" viewBox="0 521.748 7.19 13.874"/><view id="icon-soc-inst-view-blue" viewBox="0 545.6220000000001 12.81 12.812"/><view id="icon-soc-inst-view-dark" viewBox="0 568.4340000000001 12.81 12.812"/><view id="icon-soc-inst-view-white" viewBox="0 591.2460000000001 12.81 12.812"/><view id="icon-soc-od-view-blue" viewBox="0 614.0580000000001 8.97 14.937"/><view id="icon-soc-od-view-dark" viewBox="0 638.9950000000001 8.97 14.937"/><view id="icon-soc-od-view-white" viewBox="0 663.9320000000001 8.97 14.937"/><view id="icon-soc-vk-view-blue" viewBox="0 688.8690000000001 16 9.156"/><view id="icon-soc-vk-view-dark" viewBox="0 708.0250000000001 16 9.156"/><view id="icon-soc-vk-view-white" viewBox="0 727.1810000000002 16 9.156"/> <use xlink:href="#icon-arr-left" x="0" y="0" width="19" height="34" style="fill:#638bf5"/><use xlink:href="#icon-arr-left" x="0" y="44" width="19" height="34" style="fill:#46557b"/><use xlink:href="#icon-arr-left" x="0" y="88" width="19" height="34" style="fill:#ffffff"/><use xlink:href="#icon-arr-right" x="0" y="132" width="19" height="34" style="fill:#638bf5"/><use xlink:href="#icon-arr-right" x="0" y="176" width="19" height="34" style="fill:#46557b"/><use xlink:href="#icon-arr-right" x="0" y="220" width="19" height="34" style="fill:#ffffff"/><use xlink:href="#icon-menu-close" x="0" y="264" width="30" height="30" style="fill:#638bf5"/><use xlink:href="#icon-menu-close" x="0" y="304" width="30" height="30" style="fill:#46557b"/><use xlink:href="#icon-menu-close" x="0" y="344" width="30" height="30" style="fill:#ffffff"/><use xlink:href="#icon-menu-open" x="0" y="384" width="28" height="20" style="fill:#638bf5"/><use xlink:href="#icon-menu-open" x="0" y="414" width="28" height="20" style="fill:#46557b"/><use xlink:href="#icon-menu-open" x="0" y="444" width="28" height="20" style="fill:#ffffff"/><use xlink:href="#icon-soc-fb" x="0" y="474" width="7.19" height="13.874" style="fill:#638bf5"/><use xlink:href="#icon-soc-fb" x="0" y="497.874" width="7.19" height="13.874" style="fill:#46557b"/><use xlink:href="#icon-soc-fb" x="0" y="521.748" width="7.19" height="13.874" style="fill:#ffffff"/><use xlink:href="#icon-soc-inst" x="0" y="545.6220000000001" width="12.81" height="12.812" style="fill:#638bf5"/><use xlink:href="#icon-soc-inst" x="0" y="568.4340000000001" width="12.81" height="12.812" style="fill:#46557b"/><use xlink:href="#icon-soc-inst" x="0" y="591.2460000000001" width="12.81" height="12.812" style="fill:#ffffff"/><use xlink:href="#icon-soc-od" x="0" y="614.0580000000001" width="8.97" height="14.937" style="fill:#638bf5"/><use xlink:href="#icon-soc-od" x="0" y="638.9950000000001" width="8.97" height="14.937" style="fill:#46557b"/><use xlink:href="#icon-soc-od" x="0" y="663.9320000000001" width="8.97" height="14.937" style="fill:#ffffff"/><use xlink:href="#icon-soc-vk" x="0" y="688.8690000000001" width="16" height="9.156" style="fill:#638bf5"/><use xlink:href="#icon-soc-vk" x="0" y="708.0250000000001" width="16" height="9.156" style="fill:#46557b"/><use xlink:href="#icon-soc-vk" x="0" y="727.1810000000002" width="16" height="9.156" style="fill:#ffffff"/></svg>